. 
  
http://www.torrentday.com/        :     The Hottest Private Tracker On The Net!!!
 
http://www.torrentday.com          :     Once & For all ;)


               www . TorrentDay . Com 

(((((((((((((= Enjoy No RAR releases =))))))))))))))))))))


...................................NFO:....................................

.[img]http://img255.imageshack.us/img255/8225/kind.jpg[/img]

[color=blue][size=5][b]Its Kind Of.A Funny Story 2010 BDRip XVID AC3 HQ Hive-CM8[/b][/size][/color]


[b]Thx Hive

CM8 Doing It Right The First Time :D

Why download a touched up rip of a rip BRrip
Get the real deal BDRip
Enjoy

Source US Bluray

Video: 720x384 @bitrate 1700 2pass
Audio: DTS to AC3 5.1 @448
Sample: yes included
Subs: yes english in srt /subs
[/b]
 
http://www.imdb.com/title/tt0804497/


General
Complete name                    : Its.Kind.Of.A.Funny.Story.2010.BDRip.XVID.AC3.HQ.Hive-CM8.avi
Format                           : AVI
Format/Info                      : Audio Video Interleave
File size                        : 1.53 GiB
Duration                         : 1h 41mn
Overall bit rate                 : 2 158 Kbps
Writing application              : Nandub v1.0rc2
Writing library                  : Nandub build 1853/release

Video
ID                               : 0
Format                           : MPEG-4 Visual
Format profile                   : Advanced Simple@L5
Format settings, BVOP            : Yes
Format settings, QPel            : Yes
Format settings, GMC             : No warppoints
Format settings, Matrix          : Default (H.263)
Muxing mode                      : Packed bitstream
Codec ID                         : XVID
Codec ID/Hint                    : XviD
Duration                         : 1h 41mn
Bit rate                         : 1 701 Kbps
Width                            : 720 pixels
Height                           : 384 pixels
Display aspect ratio             : 1.850
Frame rate                       : 23.976 fps
Color space                      : YUV
Chroma subsampling               : 4:2:0
Bit depth                        : 8 bits
Scan type                        : Progressive
Bits/(Pixel*Frame)               : 0.257
Stream size                      : 1.20 GiB (79%)
Writing library                  : XviD 1.2.1 (UTC 2008-12-04)

Audio
ID                               : 1
Format                           : AC-3
Format/Info                      : Audio Coding 3
Mode extension                   : CM (complete main)
Codec ID                         : 2000
Duration                         : 1h 41mn
Bit rate mode                    : Constant
Bit rate                         : 448 Kbps
Channel(s)                       : 6 channels
Channel positions                : Front: L C R, Side: L R, LFE
Sampling rate                    : 48.0 KHz
Bit depth                        : 16 bits
Stream size                      : 325 MiB (21%)
Alignment                        : Split accross interleaves
Interleave, duration             : 42 ms (1.00 video frame)
Interleave, preload duration     : 500 ms





Keir Gilchrist - (Craig)
Zach Galifianakis - (Bobby)
Emma Roberts - (Noelle)
Viola Davis - (Dr. Minerva)
Zoe Kravitz - (Nia)



Adapted from Ned_Vizzini's 2006 novel, It's Kind of a Funny Story tells the story 
of burnt-out teenager Craig (Keir_Gilchrist), who checks himself into a mental health 
clinic citing exhaustion, and finds himself placed in the adult ward due to the fact 
that the youth ward has been shut down. Taken under the wing of fellow patient 
Bobby (Zach_Galifianakis), the stressed-out 16-year-old attempts to endure his 
mandatory five days' stay without completely losing his mind. 



[img]http://img703.imageshack.us/img703/8154/ccccocccoocooocooo.png[/img]
[img]http://img23.imageshack.us/img23/7784/ccccocccoooocooo.png[/img]
[img]http://img823.imageshack.us/img823/7643/ccccoccooocooo.png[/img]
[img]http://img546.imageshack.us/img546/8392/ccccocoocooo.png[/img]
[img]http://img291.imageshack.us/img291/4879/ccccoocooo.png[/img]
[img]http://img522.imageshack.us/img522/503/ccccoooo.png[/img]
[img]http://img502.imageshack.us/img502/6926/cccococcccooocoocoocooo.png[/img]
[img]http://img253.imageshack.us/img253/6356/cccococccoocoocoocooo.png[/img]
[img]http://img203.imageshack.us/img203/8784/cccococccoocooocooo.png[/img]





Greetz

iNK,LUSi,,MAGNET,CLASSiFiED,THC,LEGi0N,IMAGiNE,ViSiON,WBZ,FLAWL3SS,NOVA
Rapeseed,D2U,SAFC,goldadvance,MEMORY100,KaN1vE,Unevano,Pinnz,Wayne,Mr Hive
and all P2P groups 
Great Work Guys :D